name analog
datacolumns 19
datarows 50
range 0.466 0.4905
endheader
time	ground_force_vx	ground_force_vy	ground_force_vz	ground_force_px	ground_force_py	ground_force_pz	l_ground_force_vx	l_ground_force_vy	l_ground_force_vz	l_ground_force_px	l_ground_force_py	l_ground_force_pz	ground_torque_x	ground_torque_y	ground_torque_z	l_ground_torque_x	l_ground_torque_y	l_ground_torque_z
0.466	-0.0	-0.0	-0.0	-4.862146377563477	6.417388916015625	-305.6779479980469	4.082061290740967	-5.121978282928467	-267.6260681152344	-0.0	-0.0	-0.0	-0.0	-0.0	-0.0	84579.40625	-12243.0888671875	-1200.1337890625
0.4665	-0.0	-0.0	-0.0	-5.57535457611084	6.417388916015625	-304.61651611328125	3.726390838623047	-5.342658996582031	-264.9997253417969	-0.0	-0.0	-0.0	-0.0	-0.0	-0.0	84061.21875	-12174.4345703125	-1229.674560546875
0.467	-0.0	-0.0	-0.0	-5.70947265625	6.5951690673828125	-304.6174621582031	3.0598366260528564	-5.210979461669922	-264.6533203125	-0.0	-0.0	-0.0	-0.0	-0.0	-0.0	83591.296875	-11921.27734375	-1423.1741943359375
0.4675	-0.0	-0.0	-0.0	-6.021705150604248	6.952179908752441	-301.79229736328125	3.149751663208008	-5.475600242614746	-262.0389709472656	-0.0	-0.0	-0.0	-0.0	-0.0	-0.0	83010.578125	-11975.21484375	-1437.5673828125
0.468	-0.0	-0.0	-0.0	-6.155387878417969	7.3084187507629395	-303.2074279785156	3.2820980548858643	-5.431483268737793	-261.3380126953125	-0.0	-0.0	-0.0	-0.0	-0.0	-0.0	82611.6953125	-11909.9970703125	-1482.247314453125
0.4685	-0.0	-0.0	-0.0	-6.690569877624512	7.48738956451416	-301.2642517089844	3.326955795288086	-5.299421310424805	-259.07049560546875	-0.0	-0.0	-0.0	-0.0	-0.0	-0.0	82107.359375	-12111.9462890625	-1333.9422607421875
0.46900000000000003	-0.0	-0.0	-0.0	-7.0479278564453125	7.5754899978637695	-300.55731201171875	3.681643724441528	-5.210979461669922	-256.9755859375	-0.0	-0.0	-0.0	-0.0	-0.0	-0.0	81507.0078125	-11889.1435546875	-1378.1180419921875
0.46950000000000003	-0.0	-0.0	-0.0	-7.18299674987793	7.708673000335693	-301.0762634277344	3.725440502166748	-5.299095630645752	-256.2756652832031	-0.0	-0.0	-0.0	-0.0	-0.0	-0.0	81214.4140625	-11799.5400390625	-1318.7288818359375
0.47000000000000003	-0.0	-0.0	-0.0	-7.045406341552734	8.199441909790039	-301.0804138183594	3.7701005935668954	-4.989853858947754	-255.75482177734372	-0.0	-0.0	-0.0	-0.0	-0.0	-0.0	80800.84375	-11564.4033203125	-1318.7437744140625
0.47050000000000003	-0.0	-0.0	-0.0	-6.777893543243408	8.421771049499512	-300.56170654296875	3.814563751220703	-4.725030899047852	-254.01133728027344	-0.0	-0.0	-0.0	-0.0	-0.0	-0.0	80421.3125	-11766.4384765625	-1185.5306396484375
0.47100000000000003	-0.0	-0.0	-0.0	-6.513149261474609	8.468169212341309	-300.9186096191406	4.523809909820557	-4.769371032714844	-252.61032104492188	-0.0	-0.0	-0.0	-0.0	-0.0	-0.0	80158.28125	-11757.1474609375	-1170.2388916015625
0.47150000000000003	-0.0	-0.0	-0.0	-5.93115758895874	8.738353729248047	-300.03875732421875	4.878541469573975	-3.972827672958374	-251.0443572998047	-0.0	-0.0	-0.0	-0.0	-0.0	-0.0	79519.1640625	-11940.8115234375	-991.7461547851562
0.47200000000000003	-0.0	-0.0	-0.0	-5.218294620513916	9.136385917663574	-301.781982421875	5.632786273956299	-3.7971389293670654	-248.77737426757807	-0.0	-0.0	-0.0	-0.0	-0.0	-0.0	79575.765625	-11783.3369140625	-856.7496337890625
0.47250000000000003	-0.0	-0.0	-0.0	-4.769956588745117	8.82727336883545	-300.3773193359375	6.076299667358398	-3.5351922512054443	-250.33251953125	-0.0	-0.0	-0.0	-0.0	-0.0	-0.0	79592.3671875	-11962.7861328125	-619.7816162109375
0.47300000000000003	-0.0	-0.0	-0.0	-4.861371994018555	9.22319507598877	-299.6708068847656	7.052078723907471	-3.3536624908447266	-249.99929809570312	-0.0	-0.0	-0.0	-0.0	-0.0	-0.0	79485.765625	-12112.3134765625	-455.77239990234375
0.47350000000000003	-0.0	-0.0	-0.0	-4.686921119689941	9.532913208007812	-298.969482421875	7.63113260269165	-2.916611909866333	-249.8199462890625	-0.0	-0.0	-0.0	-0.0	-0.0	-0.0	79294.7265625	-12226.193359375	-336.6176147460937
0.47400000000000003	-0.0	-0.0	-0.0	-4.820286750793457	9.76342487335205	-297.3948669433594	8.162506103515625	-3.0476527214050293	-249.80262756347656	-0.0	-0.0	-0.0	-0.0	-0.0	-0.0	79269.2734375	-12370.7099609375	-26.12277030944824
0.47450000000000003	-0.0	-0.0	-0.0	-4.372920513153076	9.44782257080078	-297.1850280761719	8.867301940917969	-2.561328887939453	-249.2793884277344	-0.0	-0.0	-0.0	-0.0	-0.0	-0.0	79042.96875	-12535.109375	-113.00031280517578
0.47500000000000003	-0.0	-0.0	-0.0	-4.016157627105713	9.40073299407959	-297.55743408203125	9.051175117492676	-2.736640453338623	-249.64866638183597	-0.0	-0.0	-0.0	-0.0	-0.0	-0.0	79054.8359375	-12410.2578125	139.90115356445312
0.47550000000000003	-0.0	-0.0	-0.0	-3.2552855014801025	9.84801197052002	-296.4909973144531	9.628742218017578	-2.866848945617676	-249.3056488037109	-0.0	-0.0	-0.0	-0.0	-0.0	-0.0	79192.78125	-12522.5595703125	123.32267761230467
0.47600000000000003	-0.0	-0.0	-0.0	-2.7655258178710938	9.535012245178224	-295.7997436523437	10.02113151550293	-2.868074893951416	-247.7450256347656	-0.0	-0.0	-0.0	-0.0	-0.0	-0.0	78862.7890625	-12528.8251953125	361.8341369628906
0.47650000000000003	-0.0	-0.0	-0.0	-2.230262756347656	9.223986625671388	-297.730712890625	10.333970069885254	-3.132922410964966	-248.60911560058597	-0.0	-0.0	-0.0	-0.0	-0.0	-0.0	78910.4609375	-12774.6748046875	378.1930847167969
0.47700000000000004	-0.0	-0.0	-0.0	-1.473039984703064	9.275955200195312	-297.5498962402344	10.467872619628906	-2.914615631103516	-247.185302734375	-0.0	-0.0	-0.0	-0.0	-0.0	-0.0	78501.2734375	-12767.6689453125	480.1363525390625
0.47750000000000004	-0.0	-0.0	-0.0	-0.6244735717773438	9.415779113769531	-300.39306640625	11.48901081085205	-2.561328887939453	-246.33026123046875	-0.0	-0.0	-0.0	-0.0	-0.0	-0.0	78544.28125	-13119.9375	805.8702392578125
0.47800000000000004	-0.0	-0.0	-0.0	0.1373524665832519	9.48885440826416	-301.9688720703125	12.376157760620115	-2.2963638305664062	-247.20724487304688	-0.0	-0.0	-0.0	-0.0	-0.0	-0.0	78731.171875	-12924.6494140625	1059.6142578125
0.47850000000000004	-0.0	-0.0	-0.0	0.9354586005210876	8.956355094909668	-303.40142822265625	13.709043502807615	-1.4562366008758545	-249.1154327392578	-0.0	-0.0	-0.0	-0.0	-0.0	-0.0	78821.3046875	-13161.3310546875	1475.9510498046875
0.47900000000000004	-0.0	-0.0	-0.0	1.7764620780944824	9.12941551208496	-306.3580322265625	15.07860279083252	-0.5299301147460938	-250.3241424560547	-0.0	-0.0	-0.0	-0.0	-0.0	-0.0	79192.703125	-13439.8935546875	1846.7763671875
0.47950000000000004	-0.0	-0.0	-0.0	3.0304629802703857	8.777998924255371	-307.7696533203125	16.67528533935547	0.0883216857910156	-251.58677673339844	-0.0	-0.0	-0.0	-0.0	-0.0	-0.0	79755.109375	-13407.810546875	2250.34228515625
0.48	-0.0	-0.0	-0.0	4.290625095367432	8.427079200744629	-311.4934997558594	18.40873146057129	0.7519721388816833	-252.77598571777344	-0.0	-0.0	-0.0	-0.0	-0.0	-0.0	80083.1171875	-13638.703125	2711.0478515625
0.4805	-0.0	-0.0	-0.0	5.438921928405762	8.55360221862793	-314.69488525390625	20.175291061401367	1.4157010316848757	-255.25001525878903	-0.0	-0.0	-0.0	-0.0	-0.0	-0.0	80876.1875	-13686.7666015625	3010.7763671875
0.481	-0.0	-0.0	-0.0	7.281265735626221	8.070843696594238	-316.7904052734375	20.984115600585938	2.6496505737304688	-257.4835205078125	-0.0	-0.0	-0.0	-0.0	-0.0	-0.0	81933.875	-14107.03515625	3382.912841796875
0.4815	-0.0	-0.0	-0.0	8.385787963867188	7.880105495452881	-320.334228515625	22.309350967407227	3.1312062740325928	-259.9489440917969	-0.0	-0.0	-0.0	-0.0	-0.0	-0.0	82897.3125	-13995.9541015625	3618.484130859375
0.482	-0.0	-0.0	-0.0	9.324126243591309	7.424496173858643	-320.5301513671875	23.282230377197266	3.928871393203736	-263.9814453125	-0.0	-0.0	-0.0	-0.0	-0.0	-0.0	83942.1640625	-14199.953125	3684.45947265625
0.4825	-0.0	-0.0	-0.0	10.084189414978027	7.001834869384766	-323.4589538574219	23.823413848876957	4.327762603759766	-267.5588073730469	-0.0	-0.0	-0.0	-0.0	-0.0	-0.0	85365.8515625	-14465.638671875	3710.706298828125
0.483	-0.0	-0.0	-0.0	11.362156867980955	7.176736354827881	-325.1365966796875	23.95503616333008	4.154229164123535	-273.0365600585937	-0.0	-0.0	-0.0	-0.0	-0.0	-0.0	86909.0625	-14725.8876953125	3694.34375
0.4835	-0.0	-0.0	-0.0	12.453848838806152	7.144790649414063	-327.3978271484375	24.572887420654297	4.23944091796875	-276.4898986816406	-0.0	-0.0	-0.0	-0.0	-0.0	-0.0	88065.71875	-14775.142578125	3814.46826171875
0.484	-0.0	-0.0	-0.0	12.881571769714355	7.0338311195373535	-328.9945068359375	24.520082473754883	4.196962356567383	-280.0063171386719	-0.0	-0.0	-0.0	-0.0	-0.0	-0.0	89314.9921875	-15087.28515625	3827.50830078125
0.4845	-0.0	-0.0	-0.0	13.905386924743652	7.08777379989624	-330.4678649902344	24.69730758666992	4.197001457214356	-283.3297424316406	-0.0	-0.0	-0.0	-0.0	-0.0	-0.0	90111.9921875	-14992.6298828125	3774.02294921875
0.485	-0.0	-0.0	-0.0	14.41339111328125	6.97572660446167	-332.8332214355469	24.87445068359375	3.310286283493042	-285.25689697265625	-0.0	-0.0	-0.0	-0.0	-0.0	-0.0	90986.15625	-15131.177734375	3798.906005859375
0.4855	-0.0	-0.0	-0.0	15.003665924072266	7.037230014801025	-333.9074401855469	24.700382232666016	2.7416703701019287	-288.7191772460937	-0.0	-0.0	-0.0	-0.0	-0.0	-0.0	91746.03125	-15253.8310546875	3684.87744140625
0.486	-0.0	-0.0	-0.0	15.607685089111328	6.273316860198975	-337.4716491699219	24.5653018951416	1.981573343276977	-291.37451171875	-0.0	-0.0	-0.0	-0.0	-0.0	-0.0	92650.875	-15088.544921875	3607.322998046875
0.4865	-0.0	-0.0	-0.0	16.13420295715332	6.230535984039307	-339.4229431152344	24.653722763061523	1.5897903442382812	-294.7149658203125	-0.0	-0.0	-0.0	-0.0	-0.0	-0.0	93334.9921875	-14753.822265625	3725.942626953125
0.487	-0.0	-0.0	-0.0	17.11528205871582	5.895731449127197	-340.78399658203125	24.79265594482422	1.5014686584472656	-297.4613952636719	-0.0	-0.0	-0.0	-0.0	-0.0	-0.0	94208.9609375	-14811.3369140625	3564.881103515625
0.4875	-0.0	-0.0	-0.0	17.897933959960938	5.610728740692139	-344.9068908691406	24.85552978515625	1.6822214126586914	-300.9361877441406	-0.0	-0.0	-0.0	-0.0	-0.0	-0.0	95191.8515625	-14870.5263671875	3505.69970703125
0.488	-0.0	-0.0	-0.0	18.95491600036621	5.390073299407959	-347.90057373046875	24.88551139831543	1.4594346284866333	-305.5076904296875	-0.0	-0.0	-0.0	-0.0	-0.0	-0.0	96417.828125	-14748.7041015625	3382.794921875
0.4885	-0.0	-0.0	-0.0	19.56520271301269	5.286769866943359	-349.5921630859375	24.91467666625977	1.5897903442382812	-308.50115966796875	-0.0	-0.0	-0.0	-0.0	-0.0	-0.0	97406.1484375	-14749.208984375	3207.73486328125
0.489	-0.0	-0.0	-0.0	20.753433227539062	5.159979820251465	-352.9938659667969	24.535179138183597	1.5942020416259766	-311.8446960449219	-0.0	-0.0	-0.0	-0.0	-0.0	-0.0	98370.4609375	-14619.6337890625	3104.39599609375
0.4895	-0.0	-0.0	-0.0	21.4105224609375	4.98636531829834	-355.6522216796875	24.563735961914062	1.0598602294921875	-314.97076416015625	-0.0	-0.0	-0.0	-0.0	-0.0	-0.0	99281.640625	-14265.2265625	2837.35302734375
0.49	-0.0	-0.0	-0.0	22.701547622680664	4.964414119720459	-361.9294128417969	24.839019775390625	1.1528500318527222	-319.14306640625	-0.0	-0.0	-0.0	-0.0	-0.0	-0.0	100151.4375	-14111.126953125	2720.521728515625
0.4905	-0.0	-0.0	-0.0	23.27874183654785	5.557660102844238	-364.3153991699219	24.71320343017578	0.8318373560905457	-322.4320068359375	-0.0	-0.0	-0.0	-0.0	-0.0	-0.0	101450.03125	-13676.3447265625	2656.2705078125
